<svg version="1.1" xmlns="http://www.w3.org/2000/svg" viewBox="0 0 594.3333333333331 226.83333333333337">
  <!-- svg-source:excalidraw -->
  <defs>
    <style>
      @font-face {
        font-family: "Virgil";
        src: url("https://excalidraw.com/FG_Virgil.woff2");
      }
      @font-face {
        font-family: "Cascadia";
        src: url("https://excalidraw.com/Cascadia.woff2");
      }
    </style>
  </defs>
  <g transform="translate(234.83333333333258 87.66666666666669) rotate(0 59.50000000000023 33.99999999999998)"><path d="M-1.216626025736332 0.24511168152093887 C24.825626679882504 1.1965742282941947, 48.36997746899743 1.7057454757764945, 119.49596872180746 0.9061703458428383 M-0.5539140813052654 0.013381313532590866 C46.03453240059334 -1.6986849907413168, 91.22794790715015 -1.8832766417041464, 119.59407054260419 0.3791620247066021 M118.66203965991781 -1.6835761293768883 C119.23064242258714 25.82390608489512, 120.76477180376695 47.78790837973354, 120.84572663158224 67.07023308426137 M119.14297782257245 -0.3175266273319721 C119.34794531852053 18.16954505816101, 118.42754314929293 35.18854957446454, 118.76104377582715 67.34410293027754 M118.81459297984884 66.2177302613854 C92.9661329273138 67.88265351545061, 67.27553267702486 66.75582317601885, -0.7691532149910927 68.20515916496511 M118.44908069446728 68.5742026083171 C87.16769648082587 68.18267347697164, 56.71418168246767 68.32743515852835, -0.16186870262026787 68.4358558170497 M-0.01897583156824112 68.01763436943288 C-0.16345419123768845 51.08056975007054, -0.4886845512688164 36.9520759925246, -0.8977430835366249 1.0436146035790443 M0.9104150421917439 68.64450163766737 C0.6457549536228181 47.14625760987398, -0.9637417590618133 25.640639772266127, -0.4216151349246502 0.21582205221056938" style="stroke: rgb(0, 0, 0); stroke-width: 2px; fill: none;"></path></g><g transform="translate(255.49999999999955 108.5) rotate(0 35 13)"><text x="0" y="18" font-family="Virgil" font-size="20px" fill="#000000" text-anchor="start">Hatch@</text></g><g transform="translate(10 116.66666666666663) rotate(0 22 13)"><text x="0" y="18" font-family="Virgil" font-size="20px" fill="#2b8a3e" text-anchor="start">Alice</text></g><g transform="translate(528.166666666666 10) rotate(0 18 13)"><text x="0" y="18" font-family="Virgil" font-size="20px" fill="#2b8a3e" text-anchor="start">Bob</text></g><g transform="translate(527.3333333333331 93.33333333333331) rotate(0 28 13)"><text x="0" y="18" font-family="Virgil" font-size="20px" fill="#2b8a3e" text-anchor="start">Carol</text></g><g transform="translate(531.3333333333331 190.83333333333337) rotate(0 26.5 13)"><text x="0" y="18" font-family="Virgil" font-size="20px" fill="#2b8a3e" text-anchor="start">Dave</text></g><g><g transform="translate(75.33333333333326 127.99999999999994) rotate(0 74.2743028121752 0.5073452538127903)"><path d="M-0.5075758114457131 0.408005703985691 C24.585034923917714 0.46525687658125126, 124.6830958444211 0.14172827419310652, 149.6100037599603 0.35816371192538554 M-1.0613981356099247 1.5905959733203052 C23.64131084608949 1.2402960301645989, 124.4078953249711 -0.2625460971850172, 149.34489481112607 -0.5759054656947273" style="stroke: rgb(43, 138, 62); stroke-width: 2px; fill: none;"></path></g><g transform="translate(75.33333333333326 127.99999999999994) rotate(0 74.2743028121752 0.5073452538127903)"><path d="M121.97956825001722 10.8147090273884 C126.70979497153172 7.6503418689291305, 135.16070592281667 6.715714375729128, 151.01253873816378 -1.7359034281099457 M120.96837410657292 9.462210827597684 C132.90787339770915 5.678596480936762, 143.0064168535362 2.1380686294066322, 149.7403614852453 -1.0040790561462063" style="stroke: rgb(43, 138, 62); stroke-width: 2px; fill: none;"></path></g><g transform="translate(75.33333333333326 127.99999999999994) rotate(0 74.2743028121752 0.5073452538127903)"><path d="M121.69413725559974 -9.70451443582446 C126.49000606722154 -8.328925760021086, 135.00405291180303 -4.7248047345301405, 151.01253873816378 -1.7359034281099457 M120.68294311215544 -11.057012635615177 C132.75286490941696 -6.899175885420232, 142.961846701295 -2.5004506752408258, 149.7403614852453 -1.0040790561462063" style="stroke: rgb(43, 138, 62); stroke-width: 2px; fill: none;"></path></g></g><g><g transform="translate(362.83333333333326 117.99999999999994) rotate(0 77.00592459776749 -39.32040783205379)"><path d="M0.8322556391358373 0.21195672601461402 C26.684524647560377 -13.032959834900161, 128.57487781329283 -66.28418565077911, 154.3297881181041 -79.5310843283931 M-1.597392052821815 1.1682182381674648 C24.323912677620015 -11.973360826228223, 129.6800364706127 -66.15063816460054, 155.60924124835677 -79.80903390227503" style="stroke: rgb(43, 138, 62); stroke-width: 2px; fill: none;"></path></g><g transform="translate(362.83333333333326 117.99999999999994) rotate(0 77.00592459776749 -39.32040783205379)"><path d="M135.67405034267344 -57.43787272949848 C139.486085623727 -61.04498807593057, 144.6834849981937 -68.13405137588627, 154.5605423238749 -81.55481756656117 M135.2176033113245 -58.59252297436032 C141.7989404730798 -65.28795608221331, 149.21202779555853 -73.78764945580443, 155.19167561574525 -80.11968569262571" style="stroke: rgb(43, 138, 62); stroke-width: 2px; fill: none;"></path></g><g transform="translate(362.83333333333326 117.99999999999994) rotate(0 77.00592459776749 -39.32040783205379)"><path d="M126.21549531925992 -75.64929055609556 C132.2379291356775 -75.04812848243814, 139.6550732912689 -77.8633148976684, 154.5605423238749 -81.55481756656117 M125.75904828791097 -76.8039408009574 C135.9253174938696 -76.84018369568139, 146.77977768867635 -78.71388830883879, 155.19167561574525 -80.11968569262571" style="stroke: rgb(43, 138, 62); stroke-width: 2px; fill: none;"></path></g></g><g><g transform="translate(365.33333333333326 122.99999999999994) rotate(0 76.26991867319373 -4.5523118979297585)"><path d="M-0.610733713209629 0.8729296579957009 C25.121154840621692 -0.6235772396127381, 127.98308667855133 -7.867384094496567, 153.72085444380843 -9.568476258218288 M-1.1810170974209906 -0.716309608630836 C24.349438864733614 -2.5054493328059717, 126.5936185499819 -8.223418269169827, 152.37221511424832 -9.977553453855217" style="stroke: rgb(43, 138, 62); stroke-width: 2px; fill: none;"></path></g><g transform="translate(365.33333333333326 122.99999999999994) rotate(0 76.26991867319373 -4.5523118979297585)"><path d="M126.3174119936958 2.635653220867976 C132.35637359063105 0.012476897952570454, 139.46365021738154 -4.599120090097193, 153.19984887511782 -11.268282522074879 M124.94844669203312 1.311576661473378 C132.3210946265974 -0.45208789143011696, 139.42335898070021 -3.9400888652946033, 152.1197890748208 -10.834902659617365" style="stroke: rgb(43, 138, 62); stroke-width: 2px; fill: none;"></path></g><g transform="translate(365.33333333333326 122.99999999999994) rotate(0 76.26991867319373 -4.5523118979297585)"><path d="M125.0609991858619 -17.84705727462432 C131.3060747815279 -15.463457985909468, 138.72007560576546 -15.074673809491076, 153.19984887511782 -11.268282522074879 M123.69203388419922 -19.171133834018917 C131.28485095127738 -15.591885924150766, 138.71485988179276 -13.736820325254165, 152.1197890748208 -10.834902659617365" style="stroke: rgb(43, 138, 62); stroke-width: 2px; fill: none;"></path></g></g><g><g transform="translate(367 127.99999999999994) rotate(0 78.6772441408907 36.921669510956875)"><path d="M-0.07590757459402075 0.665466772019863 C26.064404138094847 12.691038865347714, 131.49492403152914 59.47237038860724, 157.81321883747972 71.31983731836087 M-0.5913840750977397 1.2993109570071102 C25.909942615284677 13.288871296060591, 131.54096812896012 61.29699748060359, 157.94587235687916 73.1778722498939" style="stroke: rgb(43, 138, 62); stroke-width: 2px; fill: none;"></path></g><g transform="translate(367 127.99999999999994) rotate(0 78.6772441408907 36.921669510956875)"><path d="M129.14132450270083 72.81437023356631 C137.4449560730616 73.7341279766914, 149.5578213498849 71.49448340070745, 159.30162122635787 72.53155085634445 M128.6723086399081 70.94965736568048 C139.62431380380252 71.62418367688812, 149.88483361179624 73.16389984806483, 157.57515776320045 72.41372078474616" style="stroke: rgb(43, 138, 62); stroke-width: 2px; fill: none;"></path></g><g transform="translate(367 127.99999999999994) rotate(0 78.6772441408907 36.921669510956875)"><path d="M137.6017617596419 54.118354513440195 C142.5525517752519 62.154927543056345, 151.44244974516852 67.03745001416495, 159.30162122635787 72.53155085634445 M137.13274589684917 52.25364164555437 C145.0766125689254 59.89574030347646, 152.19830508896172 68.37168950093891, 157.57515776320045 72.41372078474616" style="stroke: rgb(43, 138, 62); stroke-width: 2px; fill: none;"></path></g></g><g transform="translate(87.83333333333326 100.83333333333337) rotate(0 46 10.5)"><text x="0" y="15" font-family="Virgil" font-size="16px" fill="#a61e4d" text-anchor="start">"hello world"</text></g><g transform="translate(375.1666666666665 51.66666666666663) rotate(331.82140989004165 46 10.5)"><text x="0" y="15" font-family="Virgil" font-size="16px" fill="#a61e4d" text-anchor="start">"hello world"</text></g><g transform="translate(400.99999999999966 90.83333333333331) rotate(356.729512076817 46 10.5)"><text x="0" y="15" font-family="Virgil" font-size="16px" fill="#a61e4d" text-anchor="start">"hello world"</text></g><g transform="translate(407.6666666666674 139.16666666666663) rotate(24.676863170336294 46 10.5)"><text x="0" y="15" font-family="Virgil" font-size="16px" fill="#a61e4d" text-anchor="start">"hello world"</text></g></svg>